<?xml version="1.0" standalone="no"?>
<svg viewBox="-350 -150 1500 1500" style="width: 585px; height: 585px; justify-content: center; align-self: center; transform: scale(-1, 1);" width="877" height="877" xmlns="http://www.w3.org/2000/svg"><g transform="rotate(360 422.47426891326904 585.0079364776611)"><g transform="translate(0 459)"><path d="M56.5694 118.704C106.354 107.739 135.883 107.739 152.59 90.7514C169.298 73.7643 172.33 44.6057 179.261 22.0917C183.081 9.68675 220.496 -1.58116 256.792 0.182979C286.369 1.6206 316.178 14.1097 318.48 22.0917C323.608 39.8687 331.854 115.966 358.972 127.657C386.09 139.348 443.983 128.689 460.535 156.609C477.087 184.529 531.446 298.341 531.446 324.861C531.446 351.38 7.3753e-15 343.271 7.3753e-15 343.271C7.3753e-15 343.271 6.7844 129.669 56.5694 118.704Z" transform="translate(198.2435 -32)" fill="#FFFFFF" stroke="none"></path><path d="M797.325 588.11C800.665 602.38 803.995 616.66 807.335 630.93C809.155 638.72 810.974 646.5 812.795 654.29C813.2 656.021 813.699 657.829 814.21 659.677C815.615 664.765 817.104 670.158 816.935 675.11C816.295 693.55 794.655 692.96 781.305 694.79C767.085 696.74 752.755 699.36 738.425 700.31C725.755 701.15 712.915 699.31 702.215 692.54C701.885 694.62 701.555 696.7 701.224 698.78C701.445 701.54 700.825 704.14 699.934 706.98C698.014 713.17 691.644 717.09 685.235 715.33C683.445 714.84 681.945 714.02 680.724 712.95L680.715 712.95C677.974 713.59 675.055 713.86 672.165 713.94C662.514 714.21 652.865 714.44 643.224 714.67C623.925 715.14 604.625 715.59 585.325 716.09C516.785 717.87 448.224 719.27 379.655 719.57L377.969 719.577C343.921 719.725 309.863 719.873 275.805 719.44C258.825 719.22 241.855 718.9 224.885 718.32C216.224 718.02 207.535 717.68 198.915 716.69C193.555 716.07 187.355 716.12 182.635 713.59C179.745 715.82 174.955 715.47 173.905 710.88C171.245 699.22 168.585 687.57 165.925 675.92C164.285 679.65 162.645 683.39 160.995 687.11C158.995 691.63 156.985 696.14 155.265 700.74C153.885 704.47 152.195 708.02 149.265 710.82C142.577 717.197 133.207 715.874 124.576 714.656C122.678 714.388 120.816 714.125 119.025 713.95C100.545 712.15 81.6454 712.52 63.3254 715.61C53.6154 717.26 44.0254 719.56 34.6054 722.45C25.8054 725.16 16.1254 727.05 8.17542 721.03C-0.407067 714.516 -0.157841 704.253 0.0781741 694.534C0.0874556 694.152 0.0967167 693.77 0.105419 693.39L0.795419 662.55C2.64542 580.36 2.05542 497.58 10.5154 415.73C18.2454 341.05 33.8454 264.02 76.2254 200.6C112.615 146.15 165.985 104.34 225.615 77.93C240.945 71.14 256.625 65.16 272.655 60.24C287.325 55.74 302.405 52.97 317.125 48.73C323.965 46.76 328.974 45.21 334.514 41.09C334.426 41.1523 334.63 40.9811 334.907 40.749C335.252 40.4592 335.711 40.0744 335.855 39.93C336.305 39.5 336.745 39.07 337.184 38.63C337.625 38.17 337.885 37.9 338.025 37.76C338.405 37.23 338.755 36.65 339.085 36.1C340.605 33.54 341.135 30.81 341.985 26.99C343.165 21.66 344.345 17.02 348.375 13.05C351.085 10.37 353.684 8.7 357.175 7.25C359.644 6.22 362.495 6.12 365.144 6.83C366.595 3.91 368.575 1.45 371.335 0.01C371.385 -0.01 371.434 0 371.465 0.04C373.446 3.30863 373.493 6.26958 373.55 9.8268C373.557 10.2745 373.564 10.7316 373.575 11.2C373.625 13.61 373.684 16.03 373.795 18.44C380.855 23.27 390.655 24.49 398.695 25.96C411.605 28.32 424.585 30.41 437.655 31.71C451.065 33.06 464.555 33.46 478.025 33.03C484.605 32.82 491.184 32.39 497.735 31.74C499.517 31.5631 501.473 31.2105 503.497 30.8456C507.879 30.0554 512.582 29.2075 516.535 29.96L516.545 29.96C516.855 29.82 517.165 29.68 517.465 29.54C517.184 28.75 516.955 27.94 516.764 27.13C515.815 22.95 516.184 16.14 520.615 13.89C522.264 13.05 523.865 13.33 525.275 14.49C527.355 16.19 528.295 19.44 529.745 21.66C530.385 22.62 531.115 23.41 531.855 24.15C534.144 23.46 536.465 22.85 538.825 22.33C542.665 21.48 545.925 22.96 548.165 26.13C553.465 33.63 556.215 43.18 557.985 52.09C559.405 59.22 560.485 67.23 565.805 72.62C570.095 76.97 569.405 82.3 566.465 85.9C589.865 87.03 614.035 91.98 635.525 100.92C661.045 111.55 680.315 132.51 691.285 157.59C702.035 182.16 707.205 208.74 713.465 234.7C720.615 264.32 728.535 293.76 735.465 323.43C749.115 381.81 762.755 440.19 776.405 498.57C783.375 528.42 790.355 558.27 797.325 588.11ZM20.8354 701.24C20.8854 701.28 20.9454 701.32 21.0054 701.36C20.4054 701.31 20.0354 700.7 20.8354 701.24ZM24.1304 703.849C24.2054 703.848 24.1654 703.71 23.7854 703.44C23.8654 703.715 24.0554 703.85 24.1304 703.849Z" transform="translate(14.00018 0.9998)" fill="#000000" fill-rule="evenodd" stroke="none"></path></g><g transform="translate(225 0)"><g><g><path d="M329.417 95.2944C322.339 69.7984 323.351 67.0408 312.802 42.6878C277.822 -28.0622 44.0633 -4.37324 20.2063 66.2508C7.2637 104.565 10.3043 158.524 6.93529 191.747C5.90433 209.361 4.89161 226.977 3.8425 244.59C3.48019 250.673 3.11353 256.756 2.74029 262.838C2.01329 274.678 1.30629 286.518 0.64629 298.362C-3.74871 334.848 14.5873 338.559 46.0383 337.479C54.3533 357.54 67.8203 374.286 84.4553 387.911C80.4403 398.833 95.0003 404.487 102.854 408.854C145.587 432.714 198.078 447.269 245.411 433.852C259.319 429.91 316.753 416.256 334.412 373.99C343.084 353.235 360.713 245.749 337.465 149.061L329.417 95.2944Z" transform="translate(58.99981 56.51444)" fill="#FFFFFF" stroke="none"></path><path d="M212.79 6.277C209.001 -0.213001 201.61 -0.663001 195.001 0.505999C187.7 1.807 180.45 3.627 173.29 5.557C150.13 11.817 127.33 20.617 106.12 32.046C104.9 31.627 103.52 31.617 102.06 32.167C78.7514 40.936 58.2803 56.147 43.5103 76.237C36.2703 86.087 30.4613 96.926 26.4203 108.467C24.737 113.275 23.8384 118.09 22.9896 123.033L22.0943 128.271C21.2379 133.33 20.4477 138.683 20.8303 143.727C21.0303 146.237 22.3803 150.686 25.4003 150.407C15.5803 177.516 10.9803 207.807 9.53035 236.487C8.79035 251.057 9.10035 265.506 10.5013 280.016C11.2003 287.247 12.0703 294.457 13.4303 301.596C14.5503 307.477 15.5103 314.926 19.5403 319.607C20.2003 320.377 21.3703 319.877 21.6303 319.046L21.6403 319.046L21.8321 318.562C23.526 314.052 23.1747 308.422 22.8571 303.33C22.7729 301.981 22.6911 300.669 22.6503 299.426C22.4103 292.346 22.2303 285.247 22.2403 278.167C22.2703 264.287 22.8703 250.317 24.1303 236.487C25.3803 222.707 27.2703 208.957 29.9613 195.387C32.6203 181.936 36.5103 168.917 40.1303 155.727C53.2803 158.846 64.6604 167.367 78.1703 169.777C82.3003 170.516 86.1804 168.697 87.4804 164.487C87.4804 164.477 87.4804 164.477 87.4903 164.467C97.4503 160.777 107.15 156.227 117.23 152.846C127.43 149.426 138.461 145.447 149.31 143.377C151.52 145.307 154.56 146.407 157.7 146.457C163.827 146.558 169.54 144.607 175.261 142.653C180.279 140.939 185.303 139.223 190.62 138.887C197.716 138.444 204.844 138.938 211.932 139.429C222.126 140.135 232.239 140.836 242.06 138.737C242.92 140.277 244.001 141.707 245.251 142.947C248.82 146.506 253.19 148.287 258.15 148.827C260.847 149.113 263.54 148.861 266.228 148.609C268.983 148.351 271.732 148.093 274.47 148.417C279.24 148.997 284.04 151.227 288.58 152.737C292.94 154.176 297.32 155.587 301.62 157.207C308.711 159.877 316.37 163.546 320.8 169.957L321.017 170.258C322.705 172.525 325.047 173.866 327.49 174.327C327.91 175.796 328.87 177.237 330.51 178.477C332.93 180.307 335.63 181.567 338.461 182.327C339.73 193.067 341.27 203.787 342.7 214.487C345.48 235.357 348.1 256.277 350.02 277.237C353.88 319.377 355.41 361.567 350.44 403.697C348.72 418.266 346.65 432.936 339.8 446.107C334.41 456.477 326.98 465.407 318.06 472.947C299.87 488.317 275.98 496.657 252.59 499.587C238.68 501.337 224.28 501.287 210.44 499.037C203.64 497.926 196.86 496.367 190.23 494.516L187.899 493.879C186.343 493.461 184.783 493.055 183.223 492.653L178.54 491.447C179.001 489.397 176.58 487.176 174.36 487.587C171.94 488.027 169.54 488.557 167.11 489.046C163.711 489.717 162.07 495.027 164.94 497.277C170.461 501.607 175.84 505.457 182.37 508.067C188.44 510.487 194.61 512.387 201.001 513.727C214.461 516.546 228.33 517.707 242.07 517.096C269.01 515.887 296.39 508.256 318.8 492.917C340.84 477.837 357.36 455.577 362.81 429.167C371.362 387.688 370.536 343.637 366.985 301.589L366.72 298.516C364.54 273.667 360.961 248.917 356.34 224.407C353.74 210.627 351.06 196.766 347.8 183.077C357.49 182.227 367.02 176.596 371.44 168.117C372.08 166.897 372.4 165.587 372.41 164.317C377.31 162.346 381.81 159.346 385.57 155.436C388.02 152.887 388.89 149.137 387.81 145.837C393.13 143.256 397.28 138.957 398.82 132.186C400.51 124.766 398.03 117.367 393.29 112.537C395.56 104.957 394.26 96.087 390.03 89.197C386.14 82.846 380.37 78.947 373.85 76.537C374.85 75.367 375.78 74.157 376.67 72.887C379.52 68.807 377.49 62.266 373.29 59.997C358.3 51.897 341.01 48.426 324.22 50.317C323.53 49.327 322.7 48.457 321.8 47.787C314.29 42.087 305.7 38.557 296.711 37.046C296.88 36.667 297.05 36.287 297.211 35.907C299.02 31.587 295.22 26.317 291.15 25.217C285.43 23.676 279.66 22.676 273.88 22.207C274.15 21.796 274.4 21.377 274.65 20.947C277.07 16.756 275.14 9.426 269.64 8.637C251.19 5.977 232.44 6.417 214.38 10.477C214.13 9.087 213.61 7.676 212.79 6.277ZM18.8606 322.936C28.4906 316.897 48.3606 315.317 53.7306 328.186C53.9506 328.706 53.3306 329.166 52.8706 329.046L51.5566 328.715C46.5089 327.464 42.147 326.745 36.9706 328.817C32.4206 330.637 28.0006 333.486 24.9906 337.406C17.8754 346.677 17.1039 359.269 17.7674 370.514L17.8006 371.057C18.4206 380.926 20.9506 392.946 30.6006 397.826C35.2446 400.172 40.2494 400.128 45.2895 400.083C45.5564 400.081 45.8235 400.078 46.0906 400.076C52.1406 400.036 58.3206 400.696 64.1006 402.557C67.3306 403.596 68.8506 407.876 66.1706 410.387C65.2806 411.217 64.3506 411.996 63.3707 412.696C66.3006 415.818 69.1806 418.977 71.9706 422.307C76.7006 427.956 81.7306 433.416 86.9807 438.586C92.0606 443.576 97.4407 448.406 103.241 452.547C109.341 456.888 116.641 459.936 121.921 465.256C125.361 468.717 124.771 473.547 121.921 477.047C114.845 485.745 102.803 476.601 96.038 471.457L95.2206 470.836C88.1906 465.516 81.5106 459.776 75.8206 453.016C70.0206 446.116 65.0006 438.776 61.2906 430.546C59.1106 425.706 57.7206 421.137 56.9706 416.357C44.8106 421.637 29.4806 419.956 18.5806 412.526C4.11065 402.667 0.0506481 384.568 0 368.046L0.00147084 367.067C0.108544 351.009 4.32725 332.05 18.8606 322.936ZM46.7403 346.217L46.2944 346.212C36.6529 346.178 28.3166 351.129 24.1103 359.737C23.9213 360.137 24.3303 360.647 24.7513 360.377C31.6003 356.067 41.9804 355.787 48.5603 360.766C52.0604 363.407 54.4104 367.317 57.9804 369.926C62.7604 373.407 69.4304 374.147 73.8504 369.686C76.2904 367.227 76.3904 363.827 74.9904 360.857C72.6504 355.936 66.3103 353.827 61.8904 351.197L61.4206 350.919C56.8717 348.262 52.0957 346.333 46.7403 346.217Z" transform="translate(43.99995 -15)" fill="#000000" fill-rule="evenodd" stroke="none"></path></g></g><g transform="translate(159 186)"><g><path d="M145.63 0.473197L144.193 0.179116C142.503 -0.15929 140.804 -0.0161244 139.311 0.591153C137.847 1.18684 136.572 2.2242 135.68 3.72083C134.495 5.71373 134.337 7.38618 134.887 9.59525C135.311 11.3022 136.242 12.5864 137.46 13.5139C138.744 14.4911 140.37 15.0612 142.06 15.2595C149.854 16.175 157.53 17.8896 164.992 20.3235C168.488 21.4643 171.788 23.0096 175.058 24.6132L177.877 26.002C180.477 27.2735 183.163 28.499 186.557 29.3885C186.824 29.4584 187.087 29.5243 187.349 29.5865C188.29 29.2909 188.45 28.9329 188.649 28.6733L188.73 28.5721C188.972 28.2679 189.271 27.8025 188.988 25.6306C181.733 10.5814 162.083 4.00922 146.583 0.675332L145.63 0.473197ZM43.5878 4.83023L45.4652 4.50163L46.4275 4.33853C52.0515 3.40866 58.7184 2.78671 62.6028 7.20123C64.7819 9.67723 65.5318 14.2792 62.6028 16.6492C58.7671 19.7539 54.6298 19.6513 50.2182 19.5419C48.7043 19.5044 47.1582 19.466 45.5808 19.5562C40.4928 19.8482 35.6028 20.6902 30.7018 22.0912C19.9498 25.1642 11.1888 30.7742 2.00585 36.9342C0.800849 37.7422 -0.429151 36.2012 0.145849 35.0742C5.44685 24.6912 15.7198 16.1622 26.0098 10.9632C31.5019 8.18823 37.5118 5.88623 43.5878 4.83023ZM52.2374 50.7155C50.6929 49.6018 48.9969 48.9999 47.2237 48.9999C45.4506 48.9999 43.7546 49.6018 42.2101 50.7155C40.69 51.8116 39.3138 53.4113 38.1676 55.4066C35.9987 59.1823 34.6427 64.3956 34.6427 70.1599C34.6427 75.9243 35.9987 81.1376 38.1676 84.9133C39.3138 86.9085 40.69 88.5083 42.2101 89.6044C43.7546 90.7181 45.4506 91.3199 47.2237 91.3199C48.9969 91.3199 50.6929 90.7181 52.2374 89.6044C53.7575 88.5083 55.1337 86.9085 56.2799 84.9133C58.4488 81.1376 59.8047 75.9243 59.8047 70.1599C59.8047 64.3956 58.4488 59.1823 56.2799 55.4066C55.1337 53.4113 53.7575 51.8116 52.2374 50.7155ZM159.464 48.9999C161.237 48.9999 162.933 49.6018 164.478 50.7155C165.998 51.8116 167.374 53.4113 168.52 55.4066C170.689 59.1823 172.045 64.3956 172.045 70.1599C172.045 75.9243 170.689 81.1376 168.52 84.9133C167.374 86.9085 165.998 88.5083 164.478 89.6044C162.933 90.7181 161.237 91.3199 159.464 91.3199C157.691 91.3199 155.995 90.7181 154.45 89.6044C152.93 88.5083 151.554 86.9085 150.408 84.9133C148.239 81.1376 146.883 75.9243 146.883 70.1599C146.883 64.3956 148.239 59.1823 150.408 55.4066C151.554 53.4113 152.93 51.8116 154.45 50.7155C155.995 49.6018 157.691 48.9999 159.464 48.9999Z" transform="translate(59.00005 52.00027)" fill="#000000" fill-rule="evenodd" stroke="none"></path></g></g><g transform="translate(123 338)"><g><path d="M137.53 8.24075C128.479 4.00875 118.751 1.48975 108.757 0.596753C104.435 0.209753 95.9446 -1.01125 91.3476 1.80775C89.1976 3.12775 87.3806 4.97175 85.9396 7.22375C85.3776 6.44675 84.6376 5.78475 84.1696 4.94475C81.6526 0.422753 66.2046 0.328753 61.5406 0.712753C50.4806 1.62275 39.7156 4.21975 29.5776 8.58575C11.3766 16.4258 -3.91341 32.7148 0.894588 53.3948C1.57459 56.3238 4.85559 57.4628 7.55859 56.9568C25.7776 53.5418 43.9966 50.1258 62.2166 46.7108C66.4456 45.9188 70.6756 45.1258 74.9046 44.3328C78.7296 43.6158 83.4176 43.3888 87.0476 41.7388C88.5076 42.3628 90.1336 42.7588 91.8696 43.1028C113.791 47.4568 135.74 51.6808 157.675 55.9698C160.305 56.4848 163.755 55.1508 164.227 52.2368C167.375 32.7928 154.992 16.4048 137.53 8.24075" transform="translate(121.0002 28.99985)" fill="#000000" stroke="none"></path></g></g><g transform="translate(47 241)"></g></g></g></svg>